<svg width="129" height="144" viewBox="0 0 129 144" fill="none" xmlns="http://www.w3.org/2000/svg">
<path d="M84.8335 37.7917H44.1668C41.3594 37.7917 39.0835 40.0676 39.0835 42.875V68.2917C39.0835 71.0991 41.3594 73.375 44.1668 73.375H84.8335C87.641 73.375 89.9168 71.0991 89.9168 68.2917V42.875C89.9168 40.0676 87.641 37.7917 84.8335 37.7917Z" stroke="black" stroke-width="2" stroke-linecap="round" stroke-linejoin="round"/>
<path d="M74.6668 73.375V32.7083C74.6668 31.3601 74.1313 30.0672 73.1779 29.1139C72.2246 28.1606 70.9317 27.625 69.5835 27.625H59.4168C58.0686 27.625 56.7757 28.1606 55.8224 29.1139C54.8691 30.0672 54.3335 31.3601 54.3335 32.7083V73.375" stroke="black" stroke-width="2" stroke-linecap="round" stroke-linejoin="round"/>
<path d="M28.94 108.86C29.6867 108.993 30.32 109.387 30.84 110.04C31.36 110.693 31.62 111.433 31.62 112.26C31.62 112.967 31.4333 113.607 31.06 114.18C30.7 114.74 30.1733 115.187 29.48 115.52C28.7867 115.84 27.98 116 27.06 116H21.5V102.1H26.8C27.7467 102.1 28.56 102.26 29.24 102.58C29.92 102.9 30.4333 103.333 30.78 103.88C31.1267 104.413 31.3 105.013 31.3 105.68C31.3 106.48 31.0867 107.147 30.66 107.68C30.2333 108.213 29.66 108.607 28.94 108.86ZM23.78 107.94H26.6C27.3467 107.94 27.9267 107.773 28.34 107.44C28.7667 107.093 28.98 106.6 28.98 105.96C28.98 105.333 28.7667 104.847 28.34 104.5C27.9267 104.14 27.3467 103.96 26.6 103.96H23.78V107.94ZM26.86 114.14C27.6333 114.14 28.24 113.953 28.68 113.58C29.12 113.207 29.34 112.687 29.34 112.02C29.34 111.34 29.1067 110.8 28.64 110.4C28.1733 110 27.5533 109.8 26.78 109.8H23.78V114.14H26.86ZM44.0777 104.98V116H41.7977V114.7C41.4377 115.153 40.9643 115.513 40.3777 115.78C39.8043 116.033 39.191 116.16 38.5377 116.16C37.671 116.16 36.891 115.98 36.1977 115.62C35.5177 115.26 34.9777 114.727 34.5777 114.02C34.191 113.313 33.9977 112.46 33.9977 111.46V104.98H36.2577V111.12C36.2577 112.107 36.5043 112.867 36.9977 113.4C37.491 113.92 38.1643 114.18 39.0177 114.18C39.871 114.18 40.5443 113.92 41.0377 113.4C41.5443 112.867 41.7977 112.107 41.7977 111.12V104.98H44.0777ZM51.0859 116.18C50.2193 116.18 49.4393 116.027 48.7459 115.72C48.0659 115.4 47.5259 114.973 47.1259 114.44C46.7259 113.893 46.5126 113.287 46.4859 112.62H48.8459C48.8859 113.087 49.1059 113.48 49.5059 113.8C49.9193 114.107 50.4326 114.26 51.0459 114.26C51.6859 114.26 52.1793 114.14 52.5259 113.9C52.8859 113.647 53.0659 113.327 53.0659 112.94C53.0659 112.527 52.8659 112.22 52.4659 112.02C52.0793 111.82 51.4593 111.6 50.6059 111.36C49.7793 111.133 49.1059 110.913 48.5859 110.7C48.0659 110.487 47.6126 110.16 47.2259 109.72C46.8526 109.28 46.6659 108.7 46.6659 107.98C46.6659 107.393 46.8393 106.86 47.1859 106.38C47.5326 105.887 48.0259 105.5 48.6659 105.22C49.3193 104.94 50.0659 104.8 50.9059 104.8C52.1593 104.8 53.1659 105.12 53.9259 105.76C54.6993 106.387 55.1126 107.247 55.1659 108.34H52.8859C52.8459 107.847 52.6459 107.453 52.2859 107.16C51.9259 106.867 51.4393 106.72 50.8259 106.72C50.2259 106.72 49.7659 106.833 49.4459 107.06C49.1259 107.287 48.9659 107.587 48.9659 107.96C48.9659 108.253 49.0726 108.5 49.2859 108.7C49.4993 108.9 49.7593 109.06 50.0659 109.18C50.3726 109.287 50.8259 109.427 51.4259 109.6C52.2259 109.813 52.8793 110.033 53.3859 110.26C53.9059 110.473 54.3526 110.793 54.7259 111.22C55.0993 111.647 55.2926 112.213 55.3059 112.92C55.3059 113.547 55.1326 114.107 54.7859 114.6C54.4393 115.093 53.9459 115.48 53.3059 115.76C52.6793 116.04 51.9393 116.18 51.0859 116.18ZM58.9295 103.52C58.5162 103.52 58.1695 103.38 57.8895 103.1C57.6095 102.82 57.4695 102.473 57.4695 102.06C57.4695 101.647 57.6095 101.3 57.8895 101.02C58.1695 100.74 58.5162 100.6 58.9295 100.6C59.3295 100.6 59.6695 100.74 59.9495 101.02C60.2295 101.3 60.3695 101.647 60.3695 102.06C60.3695 102.473 60.2295 102.82 59.9495 103.1C59.6695 103.38 59.3295 103.52 58.9295 103.52ZM60.0495 104.98V116H57.7695V104.98H60.0495ZM68.603 104.8C69.4696 104.8 70.243 104.98 70.923 105.34C71.6163 105.7 72.1563 106.233 72.543 106.94C72.9296 107.647 73.123 108.5 73.123 109.5V116H70.863V109.84C70.863 108.853 70.6163 108.1 70.123 107.58C69.6296 107.047 68.9563 106.78 68.103 106.78C67.2496 106.78 66.5696 107.047 66.063 107.58C65.5696 108.1 65.323 108.853 65.323 109.84V116H63.043V104.98H65.323V106.24C65.6963 105.787 66.1696 105.433 66.743 105.18C67.3296 104.927 67.9496 104.8 68.603 104.8ZM86.1313 110.22C86.1313 110.633 86.1046 111.007 86.0513 111.34H77.6313C77.6979 112.22 78.0246 112.927 78.6113 113.46C79.1979 113.993 79.9179 114.26 80.7713 114.26C81.9979 114.26 82.8646 113.747 83.3713 112.72H85.8312C85.4979 113.733 84.8913 114.567 84.0113 115.22C83.1446 115.86 82.0646 116.18 80.7713 116.18C79.7179 116.18 78.7713 115.947 77.9313 115.48C77.1046 115 76.4513 114.333 75.9713 113.48C75.5046 112.613 75.2713 111.613 75.2713 110.48C75.2713 109.347 75.4979 108.353 75.9513 107.5C76.4179 106.633 77.0646 105.967 77.8913 105.5C78.7313 105.033 79.6913 104.8 80.7713 104.8C81.8113 104.8 82.7379 105.027 83.5513 105.48C84.3646 105.933 84.9979 106.573 85.4513 107.4C85.9046 108.213 86.1313 109.153 86.1313 110.22ZM83.7513 109.5C83.7379 108.66 83.4379 107.987 82.8513 107.48C82.2646 106.973 81.5379 106.72 80.6713 106.72C79.8846 106.72 79.2113 106.973 78.6513 107.48C78.0913 107.973 77.7579 108.647 77.6513 109.5H83.7513ZM92.375 116.18C91.5083 116.18 90.7283 116.027 90.035 115.72C89.355 115.4 88.815 114.973 88.415 114.44C88.015 113.893 87.8017 113.287 87.775 112.62H90.135C90.175 113.087 90.395 113.48 90.795 113.8C91.2083 114.107 91.7217 114.26 92.335 114.26C92.975 114.26 93.4683 114.14 93.815 113.9C94.175 113.647 94.355 113.327 94.355 112.94C94.355 112.527 94.155 112.22 93.755 112.02C93.3683 111.82 92.7483 111.6 91.895 111.36C91.0683 111.133 90.395 110.913 89.875 110.7C89.355 110.487 88.9017 110.16 88.515 109.72C88.1417 109.28 87.955 108.7 87.955 107.98C87.955 107.393 88.1283 106.86 88.475 106.38C88.8217 105.887 89.315 105.5 89.955 105.22C90.6083 104.94 91.355 104.8 92.195 104.8C93.4483 104.8 94.455 105.12 95.215 105.76C95.9883 106.387 96.4017 107.247 96.455 108.34H94.175C94.135 107.847 93.935 107.453 93.575 107.16C93.215 106.867 92.7283 106.72 92.115 106.72C91.515 106.72 91.055 106.833 90.735 107.06C90.415 107.287 90.255 107.587 90.255 107.96C90.255 108.253 90.3617 108.5 90.575 108.7C90.7883 108.9 91.0483 109.06 91.355 109.18C91.6617 109.287 92.115 109.427 92.715 109.6C93.515 109.813 94.1683 110.033 94.675 110.26C95.195 110.473 95.6417 110.793 96.015 111.22C96.3883 111.647 96.5817 112.213 96.595 112.92C96.595 113.547 96.4217 114.107 96.075 114.6C95.7283 115.093 95.235 115.48 94.595 115.76C93.9683 116.04 93.2283 116.18 92.375 116.18ZM103.059 116.18C102.192 116.18 101.412 116.027 100.719 115.72C100.039 115.4 99.4986 114.973 99.0986 114.44C98.6986 113.893 98.4853 113.287 98.4586 112.62H100.819C100.859 113.087 101.079 113.48 101.479 113.8C101.892 114.107 102.405 114.26 103.019 114.26C103.659 114.26 104.152 114.14 104.499 113.9C104.859 113.647 105.039 113.327 105.039 112.94C105.039 112.527 104.839 112.22 104.439 112.02C104.052 111.82 103.432 111.6 102.579 111.36C101.752 111.133 101.079 110.913 100.559 110.7C100.039 110.487 99.5853 110.16 99.1986 109.72C98.8253 109.28 98.6386 108.7 98.6386 107.98C98.6386 107.393 98.8119 106.86 99.1586 106.38C99.5053 105.887 99.9986 105.5 100.639 105.22C101.292 104.94 102.039 104.8 102.879 104.8C104.132 104.8 105.139 105.12 105.899 105.76C106.672 106.387 107.085 107.247 107.139 108.34H104.859C104.819 107.847 104.619 107.453 104.259 107.16C103.899 106.867 103.412 106.72 102.799 106.72C102.199 106.72 101.739 106.833 101.419 107.06C101.099 107.287 100.939 107.587 100.939 107.96C100.939 108.253 101.045 108.5 101.259 108.7C101.472 108.9 101.732 109.06 102.039 109.18C102.345 109.287 102.799 109.427 103.399 109.6C104.199 109.813 104.852 110.033 105.359 110.26C105.879 110.473 106.325 110.793 106.699 111.22C107.072 111.647 107.265 112.213 107.279 112.92C107.279 113.547 107.105 114.107 106.759 114.6C106.412 115.093 105.919 115.48 105.279 115.76C104.652 116.04 103.912 116.18 103.059 116.18Z" fill="black"/>
</svg>
