<svg width="83" height="30" viewBox="0 0 83 30" fill="none" xmlns="http://www.w3.org/2000/svg">
<path d="M12.92 22H10.64L3.78 11.62V22H1.5V8.08H3.78L10.64 18.44V8.08H12.92V22ZM26.0141 16.22C26.0141 16.6333 25.9874 17.0067 25.9341 17.34H17.5141C17.5807 18.22 17.9074 18.9267 18.4941 19.46C19.0807 19.9933 19.8007 20.26 20.6541 20.26C21.8807 20.26 22.7474 19.7467 23.2541 18.72H25.7141C25.3807 19.7333 24.7741 20.5667 23.8941 21.22C23.0274 21.86 21.9474 22.18 20.6541 22.18C19.6007 22.18 18.6541 21.9467 17.8141 21.48C16.9874 21 16.3341 20.3333 15.8541 19.48C15.3874 18.6133 15.1541 17.6133 15.1541 16.48C15.1541 15.3467 15.3807 14.3533 15.8341 13.5C16.3007 12.6333 16.9474 11.9667 17.7741 11.5C18.6141 11.0333 19.5741 10.8 20.6541 10.8C21.6941 10.8 22.6207 11.0267 23.4341 11.48C24.2474 11.9333 24.8807 12.5733 25.3341 13.4C25.7874 14.2133 26.0141 15.1533 26.0141 16.22ZM23.6341 15.5C23.6207 14.66 23.3207 13.9867 22.7341 13.48C22.1474 12.9733 21.4207 12.72 20.5541 12.72C19.7674 12.72 19.0941 12.9733 18.5341 13.48C17.9741 13.9733 17.6407 14.6467 17.5341 15.5H23.6341ZM32.9778 16.42L36.5378 22H33.9578L31.5778 18.26L29.3378 22H26.9578L30.5178 16.58L26.9578 10.98H29.5378L31.9178 14.72L34.1578 10.98H36.5378L32.9778 16.42ZM40.8983 12.84V18.94C40.8983 19.3533 40.9916 19.6533 41.1783 19.84C41.3783 20.0133 41.7116 20.1 42.1783 20.1H43.5783V22H41.7783C40.7516 22 39.9649 21.76 39.4183 21.28C38.8716 20.8 38.5983 20.02 38.5983 18.94V12.84H37.2983V10.98H38.5983V8.24H40.8983V10.98H43.5783V12.84H40.8983Z" fill="black"/>
<path d="M58 15L82 15" stroke="#FFC700" stroke-width="2" stroke-linecap="round" stroke-linejoin="round"/>
<path d="M75 8L82 15L75 22" stroke="#FFC700" stroke-width="2" stroke-linecap="round" stroke-linejoin="round"/>
</svg>
