<svg width="128" height="144" viewBox="0 0 128 144" fill="none" xmlns="http://www.w3.org/2000/svg">
<path d="M84.3332 73.375V68.2917C84.3332 65.5953 83.262 63.0094 81.3554 61.1027C79.4488 59.1961 76.8629 58.125 74.1665 58.125H53.8332C51.1368 58.125 48.5509 59.1961 46.6443 61.1027C44.7376 63.0094 43.6665 65.5953 43.6665 68.2917V73.375" stroke="black" stroke-width="2" stroke-linecap="round" stroke-linejoin="round"/>
<path d="M64.0002 47.9583C69.6151 47.9583 74.1668 43.4066 74.1668 37.7917C74.1668 32.1768 69.6151 27.625 64.0002 27.625C58.3853 27.625 53.8335 32.1768 53.8335 37.7917C53.8335 43.4066 58.3853 47.9583 64.0002 47.9583Z" stroke="black" stroke-width="2" stroke-linecap="round" stroke-linejoin="round"/>
<path d="M31.22 106.24C31.22 106.947 31.0533 107.613 30.72 108.24C30.3867 108.867 29.8533 109.38 29.12 109.78C28.3867 110.167 27.4467 110.36 26.3 110.36H23.78V116H21.5V102.1H26.3C27.3667 102.1 28.2667 102.287 29 102.66C29.7467 103.02 30.3 103.513 30.66 104.14C31.0333 104.767 31.22 105.467 31.22 106.24ZM26.3 108.5C27.1667 108.5 27.8133 108.307 28.24 107.92C28.6667 107.52 28.88 106.96 28.88 106.24C28.88 104.72 28.02 103.96 26.3 103.96H23.78V108.5H26.3ZM43.4945 110.22C43.4945 110.633 43.4679 111.007 43.4145 111.34H34.9945C35.0612 112.22 35.3879 112.927 35.9745 113.46C36.5612 113.993 37.2812 114.26 38.1345 114.26C39.3612 114.26 40.2279 113.747 40.7345 112.72H43.1945C42.8612 113.733 42.2545 114.567 41.3745 115.22C40.5079 115.86 39.4279 116.18 38.1345 116.18C37.0812 116.18 36.1345 115.947 35.2945 115.48C34.4679 115 33.8145 114.333 33.3345 113.48C32.8679 112.613 32.6345 111.613 32.6345 110.48C32.6345 109.347 32.8612 108.353 33.3145 107.5C33.7812 106.633 34.4279 105.967 35.2545 105.5C36.0945 105.033 37.0545 104.8 38.1345 104.8C39.1745 104.8 40.1012 105.027 40.9145 105.48C41.7279 105.933 42.3612 106.573 42.8145 107.4C43.2679 108.213 43.4945 109.153 43.4945 110.22ZM41.1145 109.5C41.1012 108.66 40.8012 107.987 40.2145 107.48C39.6279 106.973 38.9012 106.72 38.0345 106.72C37.2479 106.72 36.5745 106.973 36.0145 107.48C35.4545 107.973 35.1212 108.647 35.0145 109.5H41.1145ZM48.0183 106.58C48.3516 106.02 48.7916 105.587 49.3383 105.28C49.8983 104.96 50.5583 104.8 51.3183 104.8V107.16H50.7383C49.8449 107.16 49.1649 107.387 48.6983 107.84C48.2449 108.293 48.0183 109.08 48.0183 110.2V116H45.7383V104.98H48.0183V106.58ZM57.4141 116.18C56.5474 116.18 55.7674 116.027 55.0741 115.72C54.3941 115.4 53.8541 114.973 53.4541 114.44C53.0541 113.893 52.8407 113.287 52.8141 112.62H55.1741C55.2141 113.087 55.4341 113.48 55.8341 113.8C56.2474 114.107 56.7607 114.26 57.3741 114.26C58.0141 114.26 58.5074 114.14 58.8541 113.9C59.2141 113.647 59.3941 113.327 59.3941 112.94C59.3941 112.527 59.1941 112.22 58.7941 112.02C58.4074 111.82 57.7874 111.6 56.9341 111.36C56.1074 111.133 55.4341 110.913 54.9141 110.7C54.3941 110.487 53.9407 110.16 53.5541 109.72C53.1807 109.28 52.9941 108.7 52.9941 107.98C52.9941 107.393 53.1674 106.86 53.5141 106.38C53.8607 105.887 54.3541 105.5 54.9941 105.22C55.6474 104.94 56.3941 104.8 57.2341 104.8C58.4874 104.8 59.4941 105.12 60.2541 105.76C61.0274 106.387 61.4407 107.247 61.4941 108.34H59.2141C59.1741 107.847 58.9741 107.453 58.6141 107.16C58.2541 106.867 57.7674 106.72 57.1541 106.72C56.5541 106.72 56.0941 106.833 55.7741 107.06C55.4541 107.287 55.2941 107.587 55.2941 107.96C55.2941 108.253 55.4007 108.5 55.6141 108.7C55.8274 108.9 56.0874 109.06 56.3941 109.18C56.7007 109.287 57.1541 109.427 57.7541 109.6C58.5541 109.813 59.2074 110.033 59.7141 110.26C60.2341 110.473 60.6807 110.793 61.0541 111.22C61.4274 111.647 61.6207 112.213 61.6341 112.92C61.6341 113.547 61.4607 114.107 61.1141 114.6C60.7674 115.093 60.2741 115.48 59.6341 115.76C59.0074 116.04 58.2674 116.18 57.4141 116.18ZM68.8777 116.18C67.8377 116.18 66.8977 115.947 66.0577 115.48C65.2177 115 64.5577 114.333 64.0777 113.48C63.5977 112.613 63.3577 111.613 63.3577 110.48C63.3577 109.36 63.6043 108.367 64.0977 107.5C64.591 106.633 65.2643 105.967 66.1177 105.5C66.971 105.033 67.9243 104.8 68.9777 104.8C70.031 104.8 70.9843 105.033 71.8377 105.5C72.691 105.967 73.3643 106.633 73.8577 107.5C74.351 108.367 74.5977 109.36 74.5977 110.48C74.5977 111.6 74.3443 112.593 73.8377 113.46C73.331 114.327 72.6377 115 71.7577 115.48C70.891 115.947 69.931 116.18 68.8777 116.18ZM68.8777 114.2C69.4643 114.2 70.011 114.06 70.5177 113.78C71.0377 113.5 71.4577 113.08 71.7777 112.52C72.0977 111.96 72.2577 111.28 72.2577 110.48C72.2577 109.68 72.1043 109.007 71.7977 108.46C71.491 107.9 71.0843 107.48 70.5777 107.2C70.071 106.92 69.5243 106.78 68.9377 106.78C68.351 106.78 67.8043 106.92 67.2977 107.2C66.8043 107.48 66.411 107.9 66.1177 108.46C65.8243 109.007 65.6777 109.68 65.6777 110.48C65.6777 111.667 65.9777 112.587 66.5777 113.24C67.191 113.88 67.9577 114.2 68.8777 114.2ZM82.4116 104.8C83.2782 104.8 84.0516 104.98 84.7316 105.34C85.4249 105.7 85.9649 106.233 86.3516 106.94C86.7382 107.647 86.9316 108.5 86.9316 109.5V116H84.6716V109.84C84.6716 108.853 84.4249 108.1 83.9316 107.58C83.4382 107.047 82.7649 106.78 81.9116 106.78C81.0582 106.78 80.3782 107.047 79.8716 107.58C79.3782 108.1 79.1316 108.853 79.1316 109.84V116H76.8516V104.98H79.1316V106.24C79.5049 105.787 79.9782 105.433 80.5516 105.18C81.1382 104.927 81.7582 104.8 82.4116 104.8ZM89.0798 110.44C89.0798 109.333 89.3065 108.353 89.7598 107.5C90.2265 106.647 90.8532 105.987 91.6398 105.52C92.4398 105.04 93.3198 104.8 94.2798 104.8C95.1465 104.8 95.8998 104.973 96.5398 105.32C97.1932 105.653 97.7132 106.073 98.0998 106.58V104.98H100.4V116H98.0998V114.36C97.7132 114.88 97.1865 115.313 96.5198 115.66C95.8532 116.007 95.0932 116.18 94.2398 116.18C93.2932 116.18 92.4265 115.94 91.6398 115.46C90.8532 114.967 90.2265 114.287 89.7598 113.42C89.3065 112.54 89.0798 111.547 89.0798 110.44ZM98.0998 110.48C98.0998 109.72 97.9398 109.06 97.6198 108.5C97.3132 107.94 96.9065 107.513 96.3998 107.22C95.8932 106.927 95.3465 106.78 94.7598 106.78C94.1732 106.78 93.6265 106.927 93.1198 107.22C92.6132 107.5 92.1998 107.92 91.8798 108.48C91.5732 109.027 91.4198 109.68 91.4198 110.44C91.4198 111.2 91.5732 111.867 91.8798 112.44C92.1998 113.013 92.6132 113.453 93.1198 113.76C93.6398 114.053 94.1865 114.2 94.7598 114.2C95.3465 114.2 95.8932 114.053 96.3998 113.76C96.9065 113.467 97.3132 113.04 97.6198 112.48C97.9398 111.907 98.0998 111.24 98.0998 110.48ZM105.675 101.2V116H103.395V101.2H105.675Z" fill="black"/>
</svg>
